<?xml version="1.0" encoding="UTF-8" standalone="no"?> <!-- Created with Vectornator for iOS (http://vectornator.io/) --><!DOCTYPE svg PUBLIC "-//W3C//DTD SVG 1.1//EN" "http://www.w3.org/Graphics/SVG/1.1/DTD/svg11.dtd">
<svg height="100%" style="fill-rule:nonzero;clip-rule:evenodd;stroke-linecap:round;stroke-linejoin:round;" xmlns:xlink="http://www.w3.org/1999/xlink" xmlns="http://www.w3.org/2000/svg" xml:space="preserve" width="100%" xmlns:vectornator="http://vectornator.io" version="1.1" viewBox="0 0 1024 1024">
<metadata>
<vectornator:setting key="DimensionsVisible" value="1"/>
<vectornator:setting key="PencilOnly" value="0"/>
<vectornator:setting key="SnapToPoints" value="0"/>
<vectornator:setting key="OutlineMode" value="0"/>
<vectornator:setting key="CMYKEnabledKey" value="0"/>
<vectornator:setting key="RulersVisible" value="1"/>
<vectornator:setting key="SnapToEdges" value="0"/>
<vectornator:setting key="GuidesVisible" value="1"/>
<vectornator:setting key="DisplayWhiteBackground" value="0"/>
<vectornator:setting key="doHistoryDisabled" value="0"/>
<vectornator:setting key="SnapToGuides" value="1"/>
<vectornator:setting key="TimeLapseWatermarkDisabled" value="0"/>
<vectornator:setting key="Units" value="Pixels"/>
<vectornator:setting key="DynamicGuides" value="0"/>
<vectornator:setting key="IsolateActiveLayer" value="0"/>
<vectornator:setting key="SnapToGrid" value="0"/>
</metadata>
<defs/>
<g id="Black Background" vectornator:layerName="Black Background">
<path d="M12.1314+512C12.1314+235.93+235.93+12.1314+512+12.1314C788.07+12.1314+1011.87+235.93+1011.87+512C1011.87+788.07+788.07+1011.87+512+1011.87C235.93+1011.87+12.1314+788.07+12.1314+512Z" opacity="1" fill="#000000"/>
</g>
<g id="White Circle" vectornator:layerName="White Circle">
<path d="M51.0083+512C51.0083+254.784+257.401+46.27+512+46.27C766.599+46.27+972.992+254.784+972.992+512C972.992+769.216+766.599+977.73+512+977.73C257.401+977.73+51.0083+769.216+51.0083+512Z" opacity="1" fill="#ffffff"/>
</g>
<g id="Black Inner Background" vectornator:layerName="Black Inner Background">
<path d="M84.868+512C84.868+276.102+276.102+84.868+512+84.868C747.898+84.868+939.132+276.102+939.132+512C939.132+747.898+747.898+939.132+512+939.132C276.102+939.132+84.868+747.898+84.868+512Z" opacity="1" fill="#000000"/>
</g>
<g id="Ebene 5" vectornator:layerName="Ebene 5" visibility="hidden">
<path d="M429.094+179.875L429.094+309.062C443.188+310.063+456.884+310.392+478.375+310.406L478.375+222.938L733.594+222.938L733.594+179.875L429.094+179.875Z" opacity="1" fill="#ffffff"/>
<path d="M429.099+313.362L429.094+498L429.094+669.094L478.375+669.094L478.375+444.469L575.079+442.768C589.971+425.258+592.803+412.679+593.974+405.031L478.375+404.531C478.375+404.531+477.539+313.563+477.501+313.558C477.409+313.575+429.74+313.282+429.099+313.362Z" opacity="1" fill="#ffffff"/>
<path d="M598.406+404.531C598.403+404.566+598.443+404.59+598.438+404.625C596.64+415.33+588.396+432.635+580.344+444.469L693.428+444.469L693.759+404.531L598.406+404.531Z" opacity="1" fill="#ffffff"/>
</g>
<g id="Ebene 4" vectornator:layerName="Ebene 4" visibility="hidden">
<path d="M339.781+267.406L339.781+756.594L528.219+756.594C571.067+756.594+607.486+743.102+637.438+716.062C668.637+688.606+684.219+654.278+684.219+613.094C684.219+587.718+676.935+564.822+662.375+544.438C643.239+517.813+612.254+500.978+569.406+493.906C580.222+488.914+589.909+483.721+598.438+478.312C606.966+472.905+614.113+466.875+619.938+460.219C640.321+438.587+650.531+411.96+650.531+380.344C650.531+342.488+636.173+313.353+607.469+292.969C582.925+275.913+549.641+267.406+507.625+267.406L339.781+267.406ZM426.706+478.313L389.062+478.312L389.062+310.438L504.5+310.438C535.7+310.437+559.85+318.348+576.906+334.156C591.05+349.132+598.125+367.012+598.125+387.812C598.125+393.667+597.622+399.306+596.656+404.688C593.935+419.854+587.389+433.15+577+444.562C574.311+447.516+571.359+450.329+568.156+453.031C548.188+469.879+519.502+478.312+482.062+478.312L475.562+478.312C475.559+484.449+475.527+489.771+475.438+500.625C475.436+500.848+475.372+513.351+475.344+521.375L495.781+521.375C539.045+521.375+572.224+529.254+595.312+545.062C618.4+560.871+629.938+583.767+629.938+613.719C629.938+643.255+618.505+667.583+595.625+686.719C572.745+704.607+543.401+713.562+507.625+713.562L389.062+713.562L389.062+521.375L426.725+520.25" opacity="1" fill="#ffffff"/>
</g>
<g id="Ebene 4 kopieren" vectornator:layerName="Ebene 4 kopieren" visibility="hidden">
<path d="M339.781+267.406L339.781+756.594L528.219+756.594C571.067+756.594+607.486+743.102+637.438+716.062C668.637+688.606+684.219+654.278+684.219+613.094C684.219+587.718+676.935+564.822+662.375+544.438C643.239+517.813+612.254+500.978+569.406+493.906C580.222+488.914+589.909+483.721+598.438+478.312C606.966+472.905+614.113+466.875+619.938+460.219C640.321+438.587+650.531+411.96+650.531+380.344C650.531+342.488+636.173+313.353+607.469+292.969C582.925+275.913+549.641+267.406+507.625+267.406L339.781+267.406ZM426.706+478.313L389.062+478.312L389.062+310.438L504.5+310.438C535.7+310.437+559.85+318.348+576.906+334.156C591.05+349.132+598.125+367.012+598.125+387.812C598.125+393.667+597.622+399.306+596.656+404.688C593.935+419.854+587.389+433.15+577+444.562C574.311+447.516+571.359+450.329+568.156+453.031C548.188+469.879+519.502+478.312+482.062+478.312L475.562+478.312C475.559+484.449+475.527+489.771+475.438+500.625C475.436+500.848+475.372+513.351+475.344+521.375L495.781+521.375C539.045+521.375+572.224+529.254+595.312+545.062C618.4+560.871+629.938+583.767+629.938+613.719C629.938+643.255+618.505+667.583+595.625+686.719C572.745+704.607+543.401+713.562+507.625+713.562L389.062+713.562L389.062+521.375L426.725+520.25" opacity="1" fill="#ffffff"/>
</g>
<g id="BF" vectornator:layerName="BF">
<g opacity="1">
<path d="M404.406+223.641L404.406+352.828C418.501+353.828+432.197+354.157+453.688+354.172L453.688+266.703L708.906+266.703L708.906+223.641L404.406+223.641Z" opacity="1" fill="#ffffff"/>
<path d="M404.412+357.127L404.406+541.766L404.406+712.859L453.688+712.859L453.688+488.234L550.392+486.534C565.284+469.024+568.115+456.445+569.286+448.797L453.688+448.297C453.688+448.297+452.852+357.329+452.814+357.324C452.722+357.341+405.052+357.048+404.412+357.127Z" opacity="1" fill="#ffffff"/>
<path d="M573.719+448.297C573.715+448.332+573.756+448.355+573.75+448.391C571.952+459.095+563.708+476.4+555.656+488.234L668.74+488.234L669.072+448.297L573.719+448.297Z" opacity="1" fill="#ffffff"/>
<path d="M315.094+311.172L315.094+800.359L503.531+800.359C546.379+800.359+582.798+786.868+612.75+759.828C643.95+732.372+659.531+698.043+659.531+656.859C659.531+631.483+652.247+608.587+637.688+588.203C618.552+561.579+587.567+544.744+544.719+537.672C555.535+532.68+565.222+527.486+573.75+522.078C582.278+516.67+589.426+510.64+595.25+503.984C615.634+482.352+625.844+455.725+625.844+424.109C625.844+386.253+611.485+357.118+582.781+336.734C558.237+319.678+524.953+311.172+482.938+311.172L315.094+311.172ZM402.019+522.078L364.375+522.078L364.375+354.203L479.812+354.203C511.012+354.203+535.163+362.114+552.219+377.922C566.363+392.898+573.438+410.778+573.438+431.578C573.438+437.433+572.934+443.071+571.969+448.453C569.248+463.62+562.702+476.916+552.312+488.328C549.623+491.282+546.671+494.095+543.469+496.797C523.501+513.645+494.815+522.078+457.375+522.078L450.875+522.078C450.872+528.215+450.839+533.537+450.75+544.391C450.748+544.613+450.684+557.117+450.656+565.141L471.094+565.141C514.358+565.141+547.537+573.02+570.625+588.828C593.713+604.636+605.25+627.532+605.25+657.484C605.25+687.02+593.818+711.348+570.938+730.484C548.057+748.372+518.714+757.328+482.938+757.328L364.375+757.328L364.375+565.141L402.037+564.015" opacity="1" fill="#ffffff"/>
</g>
</g>
<g id="BF kopieren" vectornator:layerName="BF kopieren" visibility="hidden">
<path d="M411.406+214.571L411.406+343.759C425.5+344.759+439.196+345.088+460.687+345.102L460.687+257.634L715.906+257.634L715.906+214.571L411.406+214.571Z" opacity="1" fill="#ffffff"/>
<path d="M411.411+348.058L411.406+532.696L411.406+703.79L460.687+703.79L460.687+479.165L557.391+477.464C572.283+459.954+575.115+447.375+576.286+439.727L460.687+439.227C460.687+439.227+459.851+348.259+459.813+348.254C459.721+348.271+412.052+347.978+411.411+348.058Z" opacity="1" fill="#ffffff"/>
<path d="M580.718+439.227C580.715+439.262+580.755+439.286+580.75+439.321C578.952+450.026+570.708+467.331+562.656+479.165L675.74+479.165L676.071+439.227L580.718+439.227Z" opacity="1" fill="#ffffff"/>
<path d="M322.093+302.102L322.093+791.29L510.531+791.29C553.379+791.29+589.798+777.798+619.75+750.759C650.949+723.302+666.531+688.974+666.531+647.79C666.531+622.414+659.247+599.518+644.687+579.134C625.551+552.509+594.566+535.674+551.718+528.602C562.534+523.61+572.222+518.417+580.75+513.009C589.278+507.601+596.425+501.571+602.25+494.915C622.633+473.283+632.843+446.656+632.843+415.04C632.843+377.184+618.485+348.049+589.781+327.665C565.237+310.609+531.953+302.102+489.937+302.102L322.093+302.102ZM409.018+513.009L371.375+513.009L371.375+345.134L486.812+345.134C518.012+345.133+542.162+353.044+559.218+368.852C573.362+383.828+580.437+401.709+580.437+422.509C580.437+428.363+579.934+434.002+578.968+439.384C576.247+454.55+569.701+467.846+559.312+479.259C556.623+482.212+553.671+485.025+550.468+487.727C530.5+504.575+501.814+513.009+464.375+513.009L457.875+513.009C457.871+519.145+457.839+524.467+457.75+535.321C457.748+535.544+457.684+548.047+457.656+556.071L478.093+556.071C521.357+556.071+554.536+563.95+577.625+579.759C600.712+595.567+612.25+618.463+612.25+648.415C612.25+677.951+600.817+702.279+577.937+721.415C555.057+739.303+525.713+748.259+489.937+748.259L371.375+748.259L371.375+556.071L409.037+554.946" opacity="1" fill="#ffffff"/>
</g>
</svg>
